<svg xmlns="http://www.w3.org/2000/svg" width="256" height="256" viewBox="0 0 100 100"><rect width="100" height="100" rx="50" fill="#fd377e"></rect><path fill="#fff" d="M66.56 24.94Q68.52 24.94 69.67 26.16Q70.83 27.39 70.83 29.42L70.83 29.42L70.83 70.51Q70.83 72.54 69.63 73.80Q68.44 75.06 66.56 75.06L66.56 75.06Q64.31 75.06 63.13 73.45L63.13 73.45L37.57 40.20L37.57 70.51Q37.57 72.54 36.45 73.80Q35.33 75.06 33.38 75.06L33.38 75.06Q31.41 75.06 30.29 73.80Q29.17 72.54 29.17 70.51L29.17 70.51L29.17 29.42Q29.17 27.39 30.36 26.16Q31.55 24.94 33.52 24.94L33.52 24.94Q35.69 24.94 36.88 26.55L36.88 26.55L62.36 59.66L62.36 29.42Q62.36 27.39 63.51 26.16Q64.66 24.94 66.56 24.94L66.56 24.94Z"></path></svg>